<mxfile host="app.diagrams.net" modified="2022-12-09T05:41:29.952Z" agent="5.0 (Macintosh; Intel Mac OS X 10_15_6) AppleWebKit/537.36 (KHTML, like Gecko) Chrome/107.0.0.0 Safari/537.36" version="20.6.0" etag="1dpn5ZFeTiYJuuaqaAHN" type="github">
  <diagram id="Ll562eS6QaCAtsnstSD9" name="第 1 页">
    <mxGraphModel dx="896" dy="591" grid="1" gridSize="10" guides="1" tooltips="1" connect="1" arrows="1" fold="1" page="1" pageScale="1" pageWidth="827" pageHeight="1169" math="0" shadow="0">
      <root>
        <mxCell id="0" />
        <mxCell id="1" parent="0" />
        <mxCell id="3Bd1RlERYtbxXr8qKuV9-6" style="edgeStyle=orthogonalEdgeStyle;rounded=0;orthogonalLoop=1;jettySize=auto;html=1;exitX=1;exitY=0.5;exitDx=0;exitDy=0;entryX=0;entryY=0.5;entryDx=0;entryDy=0;" edge="1" parent="1" source="3Bd1RlERYtbxXr8qKuV9-1" target="3Bd1RlERYtbxXr8qKuV9-5">
          <mxGeometry relative="1" as="geometry" />
        </mxCell>
        <mxCell id="3Bd1RlERYtbxXr8qKuV9-7" value="nodeport" style="edgeLabel;html=1;align=center;verticalAlign=middle;resizable=0;points=[];" vertex="1" connectable="0" parent="3Bd1RlERYtbxXr8qKuV9-6">
          <mxGeometry x="0.2706" y="-1" relative="1" as="geometry">
            <mxPoint as="offset" />
          </mxGeometry>
        </mxCell>
        <mxCell id="3Bd1RlERYtbxXr8qKuV9-1" value="airyte" style="rounded=0;whiteSpace=wrap;html=1;" vertex="1" parent="1">
          <mxGeometry x="200" y="360" width="120" height="60" as="geometry" />
        </mxCell>
        <mxCell id="3Bd1RlERYtbxXr8qKuV9-2" value="网关路由" style="rounded=0;whiteSpace=wrap;html=1;" vertex="1" parent="1">
          <mxGeometry x="414" y="180" width="120" height="60" as="geometry" />
        </mxCell>
        <mxCell id="3Bd1RlERYtbxXr8qKuV9-4" style="edgeStyle=orthogonalEdgeStyle;rounded=0;orthogonalLoop=1;jettySize=auto;html=1;exitX=1;exitY=0.5;exitDx=0;exitDy=0;entryX=0.5;entryY=1;entryDx=0;entryDy=0;" edge="1" parent="1" source="3Bd1RlERYtbxXr8qKuV9-3" target="3Bd1RlERYtbxXr8qKuV9-2">
          <mxGeometry relative="1" as="geometry" />
        </mxCell>
        <mxCell id="3Bd1RlERYtbxXr8qKuV9-3" value="link" style="rounded=0;whiteSpace=wrap;html=1;" vertex="1" parent="1">
          <mxGeometry x="260" y="310" width="120" height="60" as="geometry" />
        </mxCell>
        <mxCell id="3Bd1RlERYtbxXr8qKuV9-5" value="上游" style="rounded=0;whiteSpace=wrap;html=1;" vertex="1" parent="1">
          <mxGeometry x="460" y="360" width="120" height="60" as="geometry" />
        </mxCell>
        <mxCell id="3Bd1RlERYtbxXr8qKuV9-9" style="edgeStyle=orthogonalEdgeStyle;rounded=0;orthogonalLoop=1;jettySize=auto;html=1;entryX=0.5;entryY=0;entryDx=0;entryDy=0;" edge="1" parent="1" source="3Bd1RlERYtbxXr8qKuV9-8" target="3Bd1RlERYtbxXr8qKuV9-2">
          <mxGeometry relative="1" as="geometry" />
        </mxCell>
        <mxCell id="3Bd1RlERYtbxXr8qKuV9-10" value="token" style="edgeLabel;html=1;align=center;verticalAlign=middle;resizable=0;points=[];" vertex="1" connectable="0" parent="3Bd1RlERYtbxXr8qKuV9-9">
          <mxGeometry x="-0.1921" relative="1" as="geometry">
            <mxPoint as="offset" />
          </mxGeometry>
        </mxCell>
        <mxCell id="3Bd1RlERYtbxXr8qKuV9-8" value="用户" style="whiteSpace=wrap;html=1;aspect=fixed;" vertex="1" parent="1">
          <mxGeometry x="450" y="30" width="49" height="49" as="geometry" />
        </mxCell>
        <mxCell id="3Bd1RlERYtbxXr8qKuV9-13" style="edgeStyle=orthogonalEdgeStyle;rounded=0;orthogonalLoop=1;jettySize=auto;html=1;entryX=0.5;entryY=0;entryDx=0;entryDy=0;" edge="1" parent="1" source="3Bd1RlERYtbxXr8qKuV9-11" target="3Bd1RlERYtbxXr8qKuV9-12">
          <mxGeometry relative="1" as="geometry" />
        </mxCell>
        <mxCell id="3Bd1RlERYtbxXr8qKuV9-11" value="插件" style="rounded=0;whiteSpace=wrap;html=1;" vertex="1" parent="1">
          <mxGeometry x="520" y="160" width="120" height="60" as="geometry" />
        </mxCell>
        <mxCell id="3Bd1RlERYtbxXr8qKuV9-12" value="mysql" style="rounded=0;whiteSpace=wrap;html=1;" vertex="1" parent="1">
          <mxGeometry x="680" y="230" width="120" height="60" as="geometry" />
        </mxCell>
      </root>
    </mxGraphModel>
  </diagram>
</mxfile>
